<svg xmlns="http://www.w3.org/2000/svg" viewBox="0 0 200 200" width="160" height="160"><defs><style>.a{fill:#41b6e6;}.b{fill:#53bbe6;}.c{fill:#6ac2e6;}</style></defs><path class="a" d="M38.82,180,36,177.92c2.32-3.46,2.67-9.25,2.67-12.95v-6.85h10V152h3.9V154h10v2.67h-10v1.53h9.14l.52-.15,2.82.6a30.59,30.59,0,0,1-1.76,5.14l-3.25-1a6.69,6.69,0,0,0,.66-1.83H52.47v1.38l6.46-.48.17,2.28-6.59.47v.07c0,.84.38,1.17,3.76,1.17h2.32c2.92,0,3.32-.51,3.44-1.53l2.82.61c-.43,2.61-1.39,3.33-6.14,3.33H56.18c-5.95,0-7.53-.87-7.53-3.33l-5.29.39L43.2,163l5.45-.43v-1.67H42V165c0,4.21-.4,10.91-3.14,15m25.88-.63H41v-2.83h6.87v-7.72h3.3v7.72h2.72v-7.72H57.2v7.72h7.53Zm-20.41-3.46a25,25,0,0,0-2.21-5.09L44.9,170a21.73,21.73,0,0,1,2.48,4.83Zm18.43-4-.16.27-.2.24c-.85,1.26-1.64,2.46-2.32,3.3l-2.48-.87A27.69,27.69,0,0,0,60,169.78l3.46,1c-.27.34-.52.73-.79,1.12"/><path class="a" d="M69.53,179.73l-.22-3.11a15.71,15.71,0,0,0,1.88,0c.47,0,.82-.14.82-.5v-6.26l-3.08.81-.76-3.27c.94-.21,2.18-.51,3.41-.81l.3-.09H72V161H68.79v-3.21h3.27V152h3.11v5.74h2.47V161H75.18v4.66l2.42-.61.47,3-2.89.9v7.21c0,1.53-.36,2.38-1.29,2.9s-2.13.68-4.36.68m11-2-1.77-2.31a4,4,0,0,0,1.52-3.1V153.35h3.49v17.81l4.39-2.7a13.69,13.69,0,0,0,1.31,2.73c-6.92,4.66-8.42,5.83-8.94,6.49M87.93,165c-.38-1-.94-2.67-1.66-4.35l-.11-.3a2.14,2.14,0,0,1-.19-.45l-.09-.3c-.52-1.25-1-2.52-1.5-3.6l2.89-1.14c.43,1,.94,2,1.44,3.19l.11.3a.62.62,0,0,1,.08.14l.1.27c.82,1.93,1.58,3.73,2,4.93ZM88,180l-2.24-3c5.21-3.76,6.85-11.65,7.28-21.12v-.37a3.37,3.37,0,0,0,0-.54v-2.16l3.32.09c0,.45-.06,1-.06,1.42v1.77a3.67,3.67,0,0,1-.06.78v.33c0,.78-.08,1.56-.16,2.35v.33A54.8,54.8,0,0,1,95,167.83c.49,1,1,2,1.5,3l.14.3a41.37,41.37,0,0,1,2.46,6.52l-3.29,1.45a36.77,36.77,0,0,0-2.13-6.29A20.59,20.59,0,0,1,88,180"/><path class="a" d="M127.38,178.55h-22V160.62h7.82c.23-1,.44-2.67.6-3.79H102.18v-3.27h28v3.27H118.48c-.3,1.14-.68,2.76-1,3.79h9.93Zm-3.71-10.62v-4.21H108.94v4.14Zm0,3H108.94v4.54h14.73Z"/><path class="a" d="M142.34,179.85h-3.6V169.3c-.14.24-.25.51-.39.75l-.16.3a34.61,34.61,0,0,1-2.7,4.45l-2.05-2.65c2-2.08,3.57-5.68,4.7-8.41h-4v-3.16h4.64v-3.7c-1.32.18-2.43.37-3.58.45a11.15,11.15,0,0,0-.94-2.62c1.48-.21,3.09-.51,4.64-.87l.27-.09a46.65,46.65,0,0,0,5.35-1.54l2,2.85a32,32,0,0,1-4.17,1.05v4.45h4.22v3.16h-4.22V164c.89.77,3.54,3.81,4.11,4.47l-1.93,2.7a16,16,0,0,0-2.18-3.23Zm18,0h-3.38v-6.76L147,174.62l-.6-3.24,10.5-1.68V152h3.38v17.19l3.1-.54.57,3.21-3.68.66Zm-7.77-11.47c-.68-.7-1.88-1.75-3.11-2.8l-.24-.2c-.63-.54-1.25-1.08-1.8-1.54l2.46-1.93c.62.47,1.35,1.08,2.07,1.65l.24.21c1.09.9,2.13,1.77,2.78,2.37Zm.85-8c-.94-1.05-3.08-3.1-4.63-4.51l2.34-1.93c.57.51,1.22,1.08,1.88,1.68l.25.18,2.5,2.4Z"/><rect class="b" x="129.9" y="66.04" width="16.13" height="53.61"/><path class="a" d="M145.22,74.14h-14.5A3.77,3.77,0,0,1,127,70.38V55.8H149V70.38a3.75,3.75,0,0,1-3.75,3.75Z"/><rect class="c" x="53.96" y="66.04" width="16.13" height="53.61"/><path class="b" d="M69.28,74.14H54.78A3.75,3.75,0,0,1,51,70.38V55.8H73.1V70.38a3.77,3.77,0,0,1-3.8,3.75h0"/><rect class="c" x="91.92" y="66.04" width="16.15" height="53.61"/><rect class="b" x="100" y="66.04" width="8.08" height="53.61"/><path class="b" d="M107.24,74.14H92.76A3.75,3.75,0,0,1,89,70.38V55.8h22V70.38a3.75,3.75,0,0,1-3.75,3.75h0"/><path class="a" d="M100,55.8V74.13h7.24A3.75,3.75,0,0,0,111,70.38V55.8Z"/><polygon class="b" points="100 47.92 36 42.07 100 20 164 42.07 100 47.92"/><polygon class="a" points="100 20 100 47.92 164 42.07 100 20"/><path class="c" d="M160.25,58.29H39.75A3.75,3.75,0,0,1,36,54.54V42.07H164v12.4a3.75,3.75,0,0,1-3.68,3.82h-.07"/><path class="b" d="M100,42.07V58.22h60.25A3.75,3.75,0,0,0,164,54.47V42.07Z"/><path class="b" d="M155.88,131.85,100,137.52l-55.88-5.67V119.49a3.75,3.75,0,0,1,3.75-3.75H152.13a3.75,3.75,0,0,1,3.75,3.75Z"/><path class="a" d="M152.13,115.74H100v21.78l55.88-5.67V119.49a3.75,3.75,0,0,0-3.75-3.75"/><path class="c" d="M164,148H36V135.6a3.75,3.75,0,0,1,3.75-3.75h120.5A3.75,3.75,0,0,1,164,135.6Z"/><path class="b" d="M160.25,131.85H100V148h64V135.6a3.75,3.75,0,0,0-3.75-3.75"/></svg>