<svg xmlns="http://www.w3.org/2000/svg" viewBox="0 0 84 24" width="189" opacity="1"><g fill="#fff"><g style="opacity:0.8"><polygon points="10.02 7.12 4.7 4.7 6.68 10.14 9.39 9.39 10.02 7.12"/><polygon points="7.12 13.98 4.7 19.3 10.02 16.88 9.39 14.61 7.12 13.98"/><polygon points="16.88 13.98 14.61 14.61 13.98 16.88 19.3 19.3 16.88 13.98"/><polygon points="16.88 10.02 19.3 4.7 13.98 7.12 14.61 9.39 16.88 10.02"/></g><path d="M12,0l2.61,9.39L24,12l-9.39,2.61L12,24,9.39,14.61,0,12,9.39,9.39Z"/><path d="M30.29,16A1.51,1.51,0,0,0,32,17.71h5.14V20H32q-4,0-4-4V8q0-4,4-4h5.14V6.29H32A1.51,1.51,0,0,0,30.29,8Z"/><path d="M39.43,4h3.08l4.35,12L51.2,4h3.09V20H52V8L47.77,20H45.94L41.71,8V20H39.43Z"/><path d="M58.86,4l6.85,11.43V4H68V20H65.71L58.86,8.57V20H56.57V4Z"/><path d="M72.57,4V20H70.29V4Z"/><path d="M77.14,16a1.51,1.51,0,0,0,1.72,1.71H84V20H78.86q-4,0-4-4V8q0-4,4-4H84V6.29H78.86A1.51,1.51,0,0,0,77.14,8Z"/></g></svg>