<?xml version="1.0" encoding="utf-8"?>
<svg version="1.1" xmlns="http://www.w3.org/2000/svg" xmlns:xlink="http://www.w3.org/1999/xlink" x="0px" y="0px"
	 viewBox="0 0 200 200" style="enable-background:new 0 0 200 200;" xml:space="preserve">
<g>
	<path style="fill:#41B6E6;" d="M28.3,200l-3.3-2.4c2.7-4,3.1-10.6,3.1-14.8V175h11.7v-7h4.6v2.2h11.7v3.1H44.4v1.8h10.7l0.6-0.2
		l3.3,0.7c-0.5,2-1.2,4-2.1,5.9l-3.8-1.2c0.4-0.7,0.6-1.4,0.8-2.1h-9.7v1.6l7.6-0.6l0.2,2.6l-7.7,0.5v0.1c0,1,0.4,1.3,4.4,1.3h2.7
		c3.4,0,3.9-0.6,4-1.8l3.3,0.7c-0.5,3-1.6,3.8-7.2,3.8h-3c-7,0-8.8-1-8.8-3.8l-6.2,0.4l-0.2-2.6l6.4-0.5v-1.9H32v4.7
		C32,187.6,31.5,195.3,28.3,200z M58.6,199.3H30.8V196h8.1v-8.8h3.9v8.8h3.2v-8.8h3.9v8.8h8.8L58.6,199.3z M34.7,195.3
		c-0.6-2-1.5-4-2.6-5.8l3.3-1c1.2,1.7,2.2,3.6,2.9,5.5L34.7,195.3z M56.3,190.8l-0.2,0.3l-0.2,0.3c-1,1.4-1.9,2.8-2.7,3.8l-2.9-1
		c1.2-1.8,2.1-3.8,2.9-5.8l4.1,1.2C56.9,189.9,56.6,190.4,56.3,190.8z"/>
	<path style="fill:#41B6E6;" d="M64.3,199.7l-0.3-3.6c0.7,0,1.5,0,2.2,0c0.6,0,1-0.2,1-0.6v-7.2l-3.6,0.9l-0.9-3.7
		c1.1-0.2,2.6-0.6,4-0.9l0.4-0.1c0.1,0,0.1,0,0.2,0v-6.3h-3.8v-3.7h3.8V168h3.7v6.6h2.9v3.7h-2.9v5.3l2.8-0.7l0.6,3.4l-3.4,1v8.2
		c0,1.7-0.4,2.7-1.5,3.3C68.3,199.5,66.9,199.7,64.3,199.7z M77.2,197.4l-2.1-2.6c1.1-0.8,1.8-2.1,1.8-3.5v-21.6H81v20.4l5.1-3.1
		c0.4,1.1,0.9,2.1,1.5,3.1C79.6,195.3,77.8,196.6,77.2,197.4z M85.8,182.9c-0.4-1.2-1.1-3.1-1.9-5l-0.1-0.3
		c-0.1-0.2-0.2-0.3-0.2-0.5l-0.1-0.3c-0.6-1.4-1.2-2.9-1.8-4.1l3.4-1.3c0.5,1.1,1.1,2.3,1.7,3.6l0.1,0.3c0,0.1,0.1,0.1,0.1,0.2
		l0.1,0.3c1,2.2,1.9,4.3,2.4,5.6L85.8,182.9z M85.9,200l-2.6-3.4c6.1-4.3,8-13.3,8.5-24.1V172c0-0.2,0-0.4,0-0.6V171
		c0-0.3,0-0.7,0-1v-1l3.9,0.1c0,0.5-0.1,1.1-0.1,1.6v0.4c0,0.4,0,0.9,0,1.3v0.4c0,0.3,0,0.6-0.1,0.9v0.4c0,0.9-0.1,1.8-0.2,2.7v0.4
		c-0.2,3.1-0.6,6.1-1.3,9.1c0.6,1.1,1.2,2.3,1.8,3.5l0.2,0.3c1.2,2.4,2.1,4.9,2.9,7.4L95,199c-0.6-2.5-1.4-4.9-2.5-7.2
		C91,195,88.7,197.8,85.9,200z"/>
	<path style="fill:#41B6E6;" d="M132.1,198.3h-25.8v-20.5h9.2c0.3-1.2,0.5-3.1,0.7-4.3h-13.6v-3.7h32.8v3.7h-13.7
		c-0.4,1.3-0.8,3.2-1.2,4.3h11.6V198.3z M127.8,186.2v-4.8h-17.3v4.7L127.8,186.2z M127.8,194.9v-5.2h-17.3v5.2H127.8z"/>
	<path style="fill:#41B6E6;" d="M149.6,199.8h-4.2v-12c-0.2,0.3-0.3,0.6-0.5,0.9l-0.2,0.3c-0.9,1.8-2,3.5-3.2,5.1l-2.4-3
		c2.3-2.4,4.2-6.5,5.5-9.6H140v-3.6h5.4v-4.2c-1.5,0.2-2.8,0.4-4.2,0.5c-0.2-1-0.6-2-1.1-3c1.7-0.2,3.6-0.6,5.4-1l0.3-0.1
		c2.1-0.5,4.2-1,6.3-1.8l2.4,3.3c-1.6,0.5-3.2,0.9-4.9,1.2v5.1h5v3.6h-5v0.3c1,0.9,4.1,4.4,4.8,5.1l-2.3,3.1
		c-0.7-1.3-1.6-2.6-2.6-3.7V199.8z M170.7,199.8h-4v-7.7l-11.6,1.8l-0.7-3.7l12.3-1.9V168h4v19.6l3.6-0.6l0.7,3.7l-4.3,0.8
		L170.7,199.8z M161.6,186.7c-0.8-0.8-2.2-2-3.6-3.2l-0.3-0.2c-0.7-0.6-1.5-1.2-2.1-1.8l2.9-2.2c0.7,0.5,1.6,1.2,2.4,1.9l0.3,0.2
		c1.3,1,2.5,2,3.3,2.7L161.6,186.7z M162.6,177.5c-1.1-1.2-3.6-3.5-5.4-5.2l2.7-2.2c0.7,0.6,1.4,1.2,2.2,1.9l0.3,0.2
		c1.1,1,2.2,2.1,2.9,2.7L162.6,177.5z"/>
</g>
<g>
	<path style="fill:#53BBE6;" d="M157.5,57.5v67h-20.2v-67H157.5z"/>
	<path style="fill:#41B6E6;" d="M156.5,67.7h-18.1c-2.6,0-4.7-2.1-4.7-4.7V44.7h27.6V63C161.3,65.6,159.2,67.7,156.5,67.7
		L156.5,67.7L156.5,67.7z"/>
	<path style="fill:#6AC2E6;" d="M62.6,57.5v67H42.5v-67H62.6z"/>
	<path style="fill:#53BBE6;" d="M61.6,67.7H43.5c-2.6,0-4.7-2.1-4.7-4.7l0,0V44.7h27.6V63C66.4,65.6,64.2,67.7,61.6,67.7
		C61.6,67.7,61.6,67.7,61.6,67.7z"/>
	<path style="fill:#6AC2E6;" d="M110.1,57.5v67H89.9v-67H110.1z"/>
	<path style="fill:#53BBE6;" d="M100,57.5h10.1v67H100V57.5z"/>
	<path style="fill:#53BBE6;" d="M109,67.7H91c-2.6,0-4.7-2.1-4.7-4.7v0V44.7h27.5V63C113.8,65.6,111.7,67.7,109,67.7
		C109.1,67.7,109.1,67.7,109,67.7z"/>
	<path style="fill:#41B6E6;" d="M100,44.7v22.9h9c2.6,0,4.7-2.1,4.7-4.7v0V44.7H100z"/>
	<path style="fill:#53BBE6;" d="M100,34.9l-80-7.3L100,0l80,27.6L100,34.9z"/>
	<path style="fill:#41B6E6;" d="M100,0v34.9l80-7.3L100,0z"/>
	<path style="fill:#6AC2E6;" d="M175.3,47.9H24.7c-2.6,0-4.7-2.1-4.7-4.7v0V27.6h160v15.5C180,45.7,178,47.8,175.3,47.9
		C175.4,47.9,175.3,47.9,175.3,47.9z"/>
	<path style="fill:#53BBE6;" d="M100,27.6v20.2h75.3c2.6,0,4.7-2.1,4.7-4.7c0,0,0,0,0,0V27.6H100z"/>
	<path style="fill:#53BBE6;" d="M169.8,139.8l-69.8,7.1l-69.8-7.1v-15.4c0-2.6,2.1-4.7,4.7-4.7c0,0,0,0,0,0h130.3
		c2.6,0,4.7,2.1,4.7,4.7l0,0V139.8z"/>
	<path style="fill:#41B6E6;" d="M165.2,119.7H100v27.2l69.8-7.1v-15.4C169.8,121.8,167.7,119.7,165.2,119.7L165.2,119.7z"/>
	<path style="fill:#6AC2E6;" d="M180,160H20v-15.5c0-2.6,2.1-4.7,4.7-4.7h0h150.6c2.6,0,4.7,2.1,4.7,4.7l0,0V160z"/>
	<path style="fill:#53BBE6;" d="M175.3,139.8H100V160h80v-15.5C180,141.9,177.9,139.8,175.3,139.8L175.3,139.8z"/>
</g>
</svg>
